SplineFontDB: 3.0
FontName: LSW-Drachenklaue-Samys-0.1
FullName: LSW Drachenklaue Regular
FamilyName: LSW Drachenklaue
Weight: Regular
Copyright: I, the copyright holder of this work, hereby release it into the public domain. This applies worldwide.\n\nIf this is not legally possible:\nI grant any entity the right to use this work for any purpose, without any conditions, unless such conditions are required by law.\n\nRet Samys & Lese- und Schreibwerkstatt Nalbach\nhttp://lese-schreib-werkstatt.de\nhttp://lesenische.wordpress.com\nhttp://retsamys.deviantart.com\nCreated with the GIMP, Inkscape and FontForge
FontLog: "VERSION 0.1+AAoA-This font was created as part of a series of themed group sessions with Lese- und Schreibwerkstatt Nalbach, specifically for the week of 2015-07-18, in which cryptographs were created. My goal was to make it seem like this kind of form of writing could have been used by dragons or similar beings. Since they have claws, it would suggest that there could be a lot of thin lines that they could easily scratch onto a surface.+AAoACgAA-This font is intentionally very simple. It shows an idea of a typeface design. Only latin characters are supported and legibility might have suffered a bit due to the nature of the design.+AAoACgAA-This font is both free to download and to use in any way.+AAoACgAA-Best wishes,+AAoA-Ret"
Version: 0.1
ItalicAngle: 0
UnderlinePosition: 0
UnderlineWidth: 0
Ascent: 801
Descent: 199
InvalidEm: 0
LayerCount: 3
Layer: 0 0 "Back" 1
Layer: 1 0 "Fore" 0
Layer: 2 0 "Back 2" 1
XUID: [1021 214 -705919938 14425]
FSType: 0
OS2Version: 0
OS2_WeightWidthSlopeOnly: 0
OS2_UseTypoMetrics: 0
CreationTime: 1437776936
ModificationTime: 1437862498
PfmFamily: 17
TTFWeight: 400
TTFWidth: 5
LineGap: 90
VLineGap: 90
OS2TypoAscent: 0
OS2TypoAOffset: 1
OS2TypoDescent: 0
OS2TypoDOffset: 1
OS2TypoLinegap: 90
OS2WinAscent: 0
OS2WinAOffset: 1
OS2WinDescent: 0
OS2WinDOffset: 1
HheadAscent: 0
HheadAOffset: 1
HheadDescent: 0
HheadDOffset: 1

StartChar: .notdef
Encoding: 0 0 0
Width: 500
Flags: W
HStem: 445 66<-35.0766 204.771>
LayerCount: 3
Fore
SplineSet
-42 483 m 0
 -42 499 -34 511 -17 511 c 0
 -8 511 9 508 43 502 c 0
 86 494 121 493 152 493 c 2
 191 493 l 2
 242 493 283 511 314 537 c 0
 323 543 331 556 337 559 c 0
 343 562 339 556 326 543 c 0
 272 493 214 463 148 451 c 0
 120 445 66 445 34 445 c 0
 -14 445 -27 453 -36 468 c 0
 -39 474 -42 477 -42 483 c 0
EndSplineSet
EndChar

StartChar: glyph
Encoding: 1 97 1
Width: 500
Flags: W
HStem: 911 20G<41.5 56>
VStem: 22 53<698.672 930.682> 31 15<238.466 270>
LayerCount: 3
Fore
SplineSet
49 931 m 0xc0
 63 931 75 922 75 908 c 0xc0
 75 902 46 270 46 77 c 1
 46 119 31 290 31 492 c 0xa0
 31 832 22 895 22 912 c 2
 22 915 l 1
 28 928 34 931 49 931 c 0xc0
EndSplineSet
EndChar

StartChar: glyph
Encoding: 2 98 2
Width: 500
Flags: W
HStem: 225 3<-5 33.478>
VStem: 209 48<286.669 390.959>
LayerCount: 3
Fore
SplineSet
209 322 m 0
 209 338 198 364 198 381 c 0
 198 396 205 407 218 412 c 0
 231 415 245 412 251 402 c 0
 254 396 257 393 257 358 c 0
 257 319 257 319 251 307 c 0
 242 291 228 276 197 264 c 0
 158 245 83 225 23 225 c 2
 -5 225 l 1
 27 228 l 1
 97 240 138 254 166 267 c 0
 194 279 209 291 209 322 c 0
EndSplineSet
EndChar

StartChar: glyph
Encoding: 3 99 3
Width: 500
Flags: W
HStem: 738 6<153.293 248.828>
VStem: -14 45<593.896 695.588>
LayerCount: 3
Fore
SplineSet
31 655 m 0
 31 638 41 612 41 593 c 0
 41 567 29 561 4 567 c 0
 -11 573 -14 580 -14 621 c 0
 -14 652 -17 660 -14 669 c 0
 -2 700 46 723 122 738 c 0
 143 744 160 744 229 744 c 0
 271 744 254 737 237 737 c 0
 226 737 211 738 197 738 c 0
 155 738 129 732 97 720 c 0
 51 703 31 686 31 655 c 0
EndSplineSet
EndChar

StartChar: glyph
Encoding: 4 100 4
Width: 500
Flags: W
VStem: 1 53<108.924 360.858>
LayerCount: 3
Fore
SplineSet
82 52 m 0
 25 78 1 132 1 223 c 0
 1 292 8 332 50 500 c 0
 78 605 85 654 91 696 c 0
 98 747 98 809 85 844 c 0
 76 876 50 907 25 923 c 0
 10 932 13 932 37 923 c 0
 110 892 151 813 151 732 c 0
 151 684 139 639 107 503 c 0
 74 362 58 286 58 238 c 0
 58 229 54 200 54 175 c 0
 54 100 59 74 91 52 c 0
 104 43 101 46 82 52 c 0
EndSplineSet
EndChar

StartChar: glyph
Encoding: 5 101 5
Width: 500
Flags: W
HStem: 904 21G<136.5 138> 919 20G<98 115>
VStem: 54 33<290.645 674.137>
LayerCount: 3
Fore
SplineSet
109 939 m 0x60
 121 939 138 923 138 910 c 1
 141 904 l 1xa0
 132 913 126 924 112 910 c 0
 103 901 97 889 94 867 c 0
 90 855 87 738 87 482 c 0
 87 118 87 112 81 94 c 0
 72 55 58 37 37 37 c 0
 30 37 24 37 18 43 c 0
 12 49 3 67 3 74 c 1
 3 74 6 74 9 67 c 0
 18 58 21 55 30 64 c 0
 54 87 54 107 54 166 c 0
 54 229 52 343 52 500 c 0
 52 861 57 864 63 882 c 0
 72 921 87 939 109 939 c 0x60
EndSplineSet
EndChar

StartChar: glyph
Encoding: 6 102 6
Width: 500
Flags: W
VStem: -13 54<681.752 918.963> 9 12<104.125 181.464>
LayerCount: 3
Fore
SplineSet
9 69 m 0x40
 9 75 -4 261 -4 485 c 0
 -4 828 -13 882 -13 896 c 2
 -13 901 l 1
 -7 916 12 924 27 918 c 0
 37 914 38 907 41 894 c 0x80
 41 888 38 834 38 771 c 0
 38 708 35 656 35 656 c 1
 35 656 38 656 38 659 c 0
 57 706 103 791 160 879 c 0
 184 918 234 993 237 993 c 1
 237 993 232 979 223 964 c 0
 115 790 43 628 30 517 c 0
 27 498 21 394 21 280 c 0
 21 99 15 64 12 64 c 0
 10 64 9 65 9 69 c 0x40
EndSplineSet
EndChar

StartChar: glyph
Encoding: 7 103 7
Width: 500
Flags: W
VStem: -7 56<30.4779 257.151> -5 46<93.642 468.932> 13 23<507.125 742.205>
LayerCount: 3
Fore
SplineSet
49 55 m 0x80
 44 37 38 23 16 30 c 0
 1 35 -7 43 -7 66 c 0x80
 -7 89 -5 137 -5 263 c 0x40
 -5 540 13 585 13 630 c 0
 13 807 80 919 167 961 c 0
 192 973 200 973 178 961 c 0
 154 949 120 916 104 892 c 0
 63 830 36 735 36 628 c 0x20
 36 571 41 487 41 305 c 0x40
 41 166 49 61 49 55 c 0x80
EndSplineSet
EndChar

StartChar: glyph
Encoding: 8 104 8
Width: 500
Flags: W
HStem: 465 37<89.9686 244.881> 820 20G<85.5 101 288.5 291>
VStem: -35 48<570.815 732.882> 318 22<592.239 693.048>
LayerCount: 3
Fore
SplineSet
340 636 m 0
 340 538 270 465 166 465 c 0
 70 465 -9 532 -29 595 c 0
 -32 609 -35 633 -35 659 c 0
 -35 730 -4 778 41 815 c 0
 61 832 78 840 93 840 c 0
 109 840 126 832 119 815 c 0
 116 806 110 800 89 787 c 0
 44 758 13 718 13 652 c 0
 13 582 45 544 95 516 c 0
 116 504 136 502 164 502 c 2
 181 502 l 2
 203 502 216 504 233 513 c 0
 281 536 318 582 318 649 c 0
 318 698 304 733 273 766 c 1
 309 736 340 695 340 636 c 0
EndSplineSet
EndChar

StartChar: glyph
Encoding: 9 105 9
Width: 500
Flags: W
VStem: 135 55<700.977 936.722> 147 38<515.201 872.509> 147 28<231.766 538.025>
LayerCount: 3
Fore
SplineSet
8 16 m 0x20
 30 28 65 58 81 82 c 0
 113 133 147 207 147 295 c 2x20
 147 669 l 2x40
 147 808 135 916 135 922 c 0
 142 953 176 959 189 928 c 0
 189 927 190 924 190 920 c 0x80
 190 905 185 867 185 714 c 0x40
 185 437 175 392 175 347 c 0
 175 212 125 115 71 58 c 0
 50 36 36 28 11 16 c 0
 -16 4 -16 4 8 16 c 0x20
EndSplineSet
EndChar

StartChar: glyph
Encoding: 10 106 10
Width: 65
VWidth: 975
Flags: W
HStem: 929 4<-21 8.71667>
VStem: 179 55<137.42 422.581>
LayerCount: 3
Fore
SplineSet
194 137 m 0
 179 143 179 149 179 205 c 0
 179 232 179 272 182 297 c 0
 200 485 203 544 207 638 c 0
 210 730 210 795 203 813 c 0
 182 881 126 913 3 929 c 1
 -21 933 l 1
 0 932 l 1
 34 929 74 923 102 916 c 0
 191 892 234 855 247 781 c 0
 253 747 247 537 237 353 c 0
 234 312 234 246 234 214 c 0
 231 152 233 146 224 137 c 0
 217 131 203 134 194 137 c 0
EndSplineSet
EndChar

StartChar: glyph
Encoding: 11 107 11
Width: 500
Flags: W
HStem: 328 6<211.524 220.291>
VStem: -14 50<387.016 483.244> -11 56<428.756 513.809>
LayerCount: 3
Fore
SplineSet
45 484 m 0xa0
 45 468 36 444 36 428 c 0xc0
 36 362 140 345 219 334 c 0
 247 331 245 328 233 328 c 0
 224 328 216 331 210 331 c 0
 177 331 128 343 100 350 c 0
 43 365 2 382 -11 407 c 0xa0
 -12 411 -14 413 -14 417 c 0xc0
 -14 424 -11 431 -11 457 c 0
 -11 493 -8 501 -5 507 c 0
 2 516 14 518 26 514 c 0
 39 510 45 501 45 484 c 0xa0
EndSplineSet
EndChar

StartChar: glyph
Encoding: 12 108 12
Width: 500
Flags: W
HStem: 640 21G<50 57>
VStem: 25 56<688.312 838.711>
LayerCount: 3
Fore
SplineSet
25 802 m 0
 25 817 31 833 38 839 c 0
 58 854 81 839 81 816 c 0
 81 797 64 711 50 640 c 1
 50 643 25 799 25 802 c 0
EndSplineSet
EndChar

StartChar: glyph
Encoding: 13 109 13
Width: 500
Flags: W
HStem: 467 199
VStem: 27 36<467.01 665.95>
LayerCount: 3
Fore
SplineSet
36 496 m 0
 28 530 27 546 27 558 c 2
 27 575 l 2
 27 597 42 666 45 666 c 1
 45 666 48 654 54 632 c 0
 63 600 63 590 63 566 c 0
 63 541 63 533 54 503 c 0
 48 481 45 467 45 467 c 1
 45 467 39 481 36 496 c 0
EndSplineSet
EndChar

StartChar: glyph
Encoding: 14 110 14
Width: 500
Flags: W
HStem: 305 202
VStem: 21 58<303.544 458.087>
LayerCount: 3
Fore
SplineSet
48 507 m 0
 50 507 79 328 79 328 c 1
 79 307 58 296 39 305 c 0
 27 311 21 319 21 341 c 0
 21 356 45 507 48 507 c 0
EndSplineSet
EndChar

StartChar: glyph
Encoding: 15 111 15
Width: 500
Flags: W
VStem: -5 55<719.849 946.496> -4 47<501.162 909.903> 15 23<239.026 464.229>
LayerCount: 3
Fore
SplineSet
174 16 m 0x20
 83 58 15 167 15 347 c 0x20
 15 392 -4 437 -4 714 c 0x40
 -4 840 -5 888 -5 911 c 0
 -5 939 15 954 36 945 c 0
 46 942 47 934 50 922 c 0x80
 50 916 43 805 43 669 c 0x40
 43 485 38 401 38 346 c 0
 38 240 69 149 106 85 c 0
 124 58 155 28 180 16 c 0
 204 4 198 4 174 16 c 0x20
EndSplineSet
EndChar

StartChar: glyph
Encoding: 16 112 16
Width: 500
Flags: W
HStem: 525 23<95.085 137 184.135 205.857>
VStem: 137 47<546.534 715.481> 143 35<506 524.998>
LayerCount: 3
Fore
SplineSet
194 548 m 0xc0
 217 548 235 531 235 505 c 0
 235 476 201 448 169 468 c 0
 154 477 149 485 146 506 c 2
 143 525 l 1xa0
 -17 525 l 2
 -3 525 112 545 127 545 c 0
 134 545 137 545 137 548 c 2
 137 693 l 2
 137 728 138 741 155 747 c 0
 172 754 192 741 192 716 c 0
 192 705 188 690 188 639 c 0
 188 588 184 565 184 556 c 0
 184 546 191 551 194 548 c 0xc0
184 494 m 0xc0
 201 483 220 508 206 522 c 0
 203 525 197 525 191 525 c 0
 181 525 178 522 178 513 c 0xa0
 178 506 178 497 184 494 c 0xc0
EndSplineSet
EndChar

StartChar: glyph
Encoding: 17 113 17
Width: 500
Flags: W
HStem: 368 6<48.0044 75.6101> 561 57<-1.46307 100.888>
VStem: 144 37<426.107 514.444>
LayerCount: 3
Fore
SplineSet
181 485 m 0
 181 423 125 368 48 368 c 1
 48 368 54 371 67 374 c 0
 114 386 144 414 144 459 c 0
 144 511 97 561 37 561 c 0
 16 561 6 567 0 579 c 0
 -17 613 11 622 46 618 c 0
 119 602 181 551 181 485 c 0
EndSplineSet
EndChar

StartChar: glyph
Encoding: 18 114 18
Width: 500
Flags: W
HStem: 951 4<225.371 265>
VStem: -19 45<469.733 863.885> -3 57<140.282 528.897>
LayerCount: 3
Fore
SplineSet
15 140 m 0xa0
 3 146 -3 153 -3 185 c 2
 -3 321 l 2xa0
 -3 465 -19 547 -19 661 c 2
 -19 740 l 2xc0
 -19 803 -17 826 -3 854 c 0xa0
 12 885 46 908 84 923 c 0
 120 938 183 955 237 955 c 2
 265 955 l 1
 237 951 l 1
 111 935 48 898 29 829 c 0
 26 820 26 811 26 795 c 0xc0
 26 772 27 738 27 677 c 0
 27 566 51 502 51 310 c 0
 51 267 55 205 55 174 c 0
 55 167 54 162 54 159 c 0
 54 142 32 134 15 140 c 0xa0
EndSplineSet
EndChar

StartChar: glyph
Encoding: 19 115 19
Width: 500
Flags: W
HStem: 885 0
VStem: -17 58<590.541 786.132> 81 54<143.51 357.537>
LayerCount: 3
Fore
SplineSet
120 150 m 0
 105 128 86 156 81 171 c 1
 81 219 l 2
 81 285 63 345 31 475 c 0
 0 604 -9 647 -16 698 c 0
 -17 709 -17 718 -17 728 c 0
 -17 757 -9 772 12 794 c 0
 48 829 114 866 186 885 c 0
 222 894 242 894 214 885 c 0
 138 860 75 818 51 771 c 0
 44 755 41 755 41 725 c 0
 41 674 52 632 91 475 c 0
 126 318 135 276 135 219 c 0
 135 178 132 162 120 150 c 0
EndSplineSet
EndChar

StartChar: glyph
Encoding: 20 116 20
Width: 500
Flags: W
HStem: -1 9<71.9409 129.542>
VStem: -20 57<581.947 948.076> -17 47<357.896 911.346>
LayerCount: 3
Fore
SplineSet
272 107 m 1xa0
 245 53 180 -1 94 -1 c 0
 44 -1 17 29 1 69 c 0
 -8 93 -17 153 -17 571 c 0xa0
 -17 807 -20 885 -20 914 c 0xc0
 -20 928 -19 928 -17 931 c 0xa0
 -8 950 15 956 27 941 c 0
 30 938 37 930 37 924 c 2
 37 913 l 2xc0
 37 879 30 763 30 482 c 0
 30 289 23 153 23 126 c 0
 23 56 37 8 100 8 c 0
 154 8 238 55 272 107 c 1xa0
EndSplineSet
EndChar

StartChar: glyph
Encoding: 21 117 21
Width: 500
Flags: W
VStem: -4 41<420.426 802.854> 3 63<709.881 917.947>
LayerCount: 3
Fore
SplineSet
180 141 m 0x80
 84 235 27 340 3 479 c 0x40
 -2 510 -4 545 -4 584 c 0x80
 -4 659 3 747 3 842 c 0
 3 902 12 912 30 921 c 0
 46 927 63 919 66 904 c 0x40
 66 901 66 882 63 861 c 0
 44 736 37 645 37 565 c 0
 37 376 84 245 186 138 c 0
 198 126 205 121 205 121 c 1
 205 121 192 129 180 141 c 0x80
EndSplineSet
EndChar

StartChar: glyph
Encoding: 22 118 22
Width: 500
Flags: W
HStem: 923 20G<45.5 48.2245>
VStem: 22 51<321.162 550.754> 47 18<774.351 830.778>
LayerCount: 3
Fore
SplineSet
47 321 m 0xa0
 28 321 22 335 22 356 c 0xc0
 22 384 44 937 47 943 c 2
 47 943 65 812 65 649 c 0xa0
 65 413 73 353 73 335 c 0xc0
 73 319 64 321 47 321 c 0xa0
EndSplineSet
EndChar

StartChar: glyph
Encoding: 23 119 23
Width: 500
Flags: W
HStem: 899 20G<10 10.9476>
VStem: -2 44<79 317> -2 31<380.509 683.965>
LayerCount: 3
Fore
SplineSet
224 -2 m 0xa0
 135 122 73 229 36 317 c 1
 36 314 42 84 42 82 c 0
 39 65 26 53 12 53 c 0
 2 53 -5 59 -11 70 c 1
 -2 79 l 1xc0
 -2 494 l 2
 -2 722 10 916 10 919 c 2
 10 919 29 787 29 518 c 0
 29 452 33 421 46 374 c 0
 76 269 144 126 230 -10 c 1
 229 -9 226 -5 224 -2 c 0xa0
EndSplineSet
EndChar

StartChar: glyph
Encoding: 24 120 24
Width: 500
Flags: W
HStem: 498 6<260.967 282.215>
VStem: -30 48<556.442 668.771>
LayerCount: 3
Fore
SplineSet
29 653 m 0
 29 636 18 610 18 595 c 0
 18 576 24 564 43 552 c 0
 74 530 121 522 283 504 c 0
 328 498 328 498 280 498 c 0
 138 498 63 519 18 541 c 0
 -7 553 -17 561 -24 576 c 0
 -30 589 -30 589 -30 624 c 0
 -30 669 -27 678 -11 684 c 0
 9 695 29 675 29 653 c 0
EndSplineSet
EndChar

StartChar: glyph
Encoding: 25 121 25
Width: 500
Flags: W
HStem: 73 0 814 20G<100.5 122>
VStem: -11 57<182.135 401.897> 80 60<622.223 831.104>
LayerCount: 3
Fore
SplineSet
80 761 m 0
 80 800 88 834 113 834 c 0
 131 834 140 800 140 755 c 0
 140 707 130 663 99 543 c 0
 77 449 68 421 62 385 c 0
 51 335 46 288 46 256 c 0
 46 241 48 230 49 221 c 0
 65 157 122 100 204 73 c 0
 228 63 219 63 191 73 c 0
 97 100 14 157 -11 214 c 0
 -17 227 -11 231 -11 259 c 0
 -11 313 0 361 36 512 c 0
 71 669 80 698 80 761 c 0
EndSplineSet
EndChar

StartChar: glyph
Encoding: 26 122 26
Width: 500
Flags: W
HStem: 629 7<-31.9853 82.6004>
VStem: 267 48<461.684 577.945>
LayerCount: 3
Fore
SplineSet
256 478 m 0
 256 495 267 523 267 539 c 0
 267 571 241 591 182 605 c 0
 152 614 122 629 31 629 c 0
 -12 629 -32 636 -32 636 c 1
 -10 636 l 2
 125 636 216 617 267 592 c 0
 310 571 315 571 315 509 c 0
 315 457 310 435 273 448 c 0
 261 454 256 463 256 478 c 0
EndSplineSet
EndChar

StartChar: glyph
Encoding: 27 65 27
Width: 500
Flags: W
HStem: 459 23<-8.98438 76 110 196.979> 914 20G<88 105>
VStem: 69 55<739.923 933.557> 79 31<240.45 459 482 699.898> 79 22<80.7893 433.38>
LayerCount: 3
Fore
SplineSet
98 934 m 0xe0
 112 934 124 926 124 910 c 0xe0
 124 901 110 564 110 504 c 2
 110 482 l 1
 146 482 l 2
 190 482 197 479 197 470 c 0
 197 460 190 459 146 459 c 2
 110 459 l 1xd0
 107 434 l 1
 107 422 101 331 101 236 c 0xc8
 101 140 92 64 92 64 c 1
 92 64 79 155 79 263 c 2
 79 459 l 1xd0
 -8 459 l 1
 -15 462 -11 476 -5 479 c 0
 -2 479 16 482 41 482 c 2
 76 482 l 1
 76 525 l 2
 76 547 70 639 70 735 c 0
 70 841 69 884 69 903 c 0
 69 927 78 934 98 934 c 0xe0
EndSplineSet
EndChar

StartChar: glyph
Encoding: 28 66 28
Width: 500
Flags: W
HStem: 149 6<-19 30.2629> 239 24<107.005 191.793 243 314.996> 746 23<111.204 312.797>
VStem: 183 60<269.245 325.722> 192 51<263.251 304.478>
LayerCount: 3
Fore
SplineSet
110 747 m 0xe0
 104 753 110 763 116 766 c 0
 121 767 167 769 214 769 c 0
 260 769 306 767 309 766 c 0
 315 763 318 750 309 747 c 0
 304 746 257 746 209 746 c 0
 163 746 113 746 110 747 c 0xe0
192 269 m 0xe8
 192 274 183 294 183 305 c 0
 183 323 190 334 204 339 c 0
 217 342 230 336 237 326 c 0
 240 320 243 319 243 294 c 2xf0
 243 263 l 1
 274 263 l 2
 309 263 315 260 315 251 c 0
 315 242 309 239 274 239 c 2
 240 239 l 1
 229 206 193 186 132 169 c 0
 96 160 44 149 9 149 c 2
 -19 149 l 1
 15 155 l 2
 103 171 149 182 177 203 c 0
 183 209 195 233 195 239 c 0
 195 242 189 239 158 239 c 0
 113 239 107 242 107 251 c 0
 107 263 113 263 155 263 c 0
 190 263 192 266 192 269 c 0xe8
EndSplineSet
EndChar

StartChar: glyph
Encoding: 29 67 29
Width: 500
Flags: W
HStem: 411 17<-25.3935 178> 673 23<-26.9845 45 99.1935 177.995> 772 6<217.245 311.084>
VStem: 45 57<600.13 672.748>
LayerCount: 3
Fore
SplineSet
93 673 m 1
 95 668 102 639 102 628 c 0
 102 604 90 591 64 601 c 0
 48 607 45 610 45 642 c 2
 45 673 l 1
 13 673 l 2
 -22 673 -27 672 -27 684 c 0
 -27 693 -22 696 16 696 c 2
 45 696 l 1
 45 702 l 1
 52 724 92 747 136 759 c 0
 187 775 201 778 292 778 c 0
 332 778 312 770 297 770 c 0
 286 770 270 772 256 772 c 0
 195 772 116 749 96 712 c 0
 90 696 89 696 130 696 c 0
 152 696 172 693 175 693 c 0
 178 690 178 690 178 684 c 0
 178 675 172 673 130 673 c 2
 93 673 l 1
-21 411 m 0
 -27 414 -30 422 -24 428 c 0
 -21 430 27 431 73 431 c 0
 121 431 167 430 172 428 c 0
 178 425 178 425 178 419 c 0
 178 413 178 414 172 411 c 0
 169 410 124 408 78 408 c 0
 32 408 -16 410 -21 411 c 0
EndSplineSet
EndChar

StartChar: glyph
Encoding: 30 68 30
Width: 500
Flags: W
HStem: 226 22<-9.87135 21 78.0045 198.991> 465 23<-5.99696 59.9941 123 198.979>
VStem: 21 54<104.837 226 248.942 366.218> 114 60<605.555 835.327>
LayerCount: 3
Fore
SplineSet
103 52 m 0
 52 74 21 121 21 200 c 2
 21 226 l 1
 9 226 l 1
 -6 229 -10 226 -10 235 c 0
 -10 245 -3 248 12 248 c 2
 21 248 l 1
 21 260 l 2
 21 285 38 371 54 431 c 0
 57 446 60 465 60 465 c 2
 60 468 52 465 34 465 c 0
 -2 465 -6 467 -6 476 c 0
 -6 488 -2 488 34 488 c 2
 66 488 l 1
 81 542 l 1
 106 647 114 705 114 756 c 0
 114 789 112 822 106 844 c 0
 97 876 69 907 44 923 c 0
 29 932 32 932 57 923 c 0
 121 896 174 830 174 748 c 0
 174 705 162 638 135 537 c 0
 129 516 126 497 126 494 c 1
 123 488 l 1
 157 488 l 2
 192 488 199 485 199 476 c 0
 199 467 195 465 154 465 c 2
 114 465 l 1
 109 425 l 1
 94 356 78 279 78 254 c 0
 78 251 84 248 132 248 c 2
 192 248 l 1
 199 245 199 242 199 235 c 0
 199 229 199 229 192 226 c 1
 132 226 l 2
 103 226 91 228 83 228 c 0
 80 228 78 228 78 226 c 0
 78 223 75 200 75 175 c 0
 75 100 81 74 114 52 c 0
 126 43 121 46 103 52 c 0
EndSplineSet
EndChar

StartChar: glyph
Encoding: 31 69 31
Width: 500
Flags: W
HStem: 35 39<44.1092 70.98> 223 25<-6.9758 78 110 197.982> 730 23<-6.98431 78 113 197.995> 904 21G<161 163> 920 20G<112.5 138>
VStem: 78 32<73.6946 223 248 730 753 895.882>
LayerCount: 3
Fore
SplineSet
132 940 m 0xec
 144 940 163 923 163 910 c 1
 166 904 l 1xf4
 156 914 152 920 138 910 c 0
 119 898 113 873 113 804 c 2
 113 753 l 1
 153 753 l 2
 175 753 192 750 195 750 c 0
 198 747 198 747 198 741 c 0
 198 732 192 730 150 730 c 2
 113 730 l 1
 113 655 l 2
 113 613 110 504 110 413 c 2
 110 248 l 1
 150 248 l 2
 192 248 198 245 198 236 c 0
 198 226 192 223 150 223 c 2
 110 223 l 1
 110 169 l 2
 110 125 109 109 106 94 c 0
 96 57 79 35 61 35 c 0
 44 35 24 60 24 74 c 1
 24 74 30 74 33 68 c 0
 42 58 44 58 53 65 c 0
 72 77 78 106 78 175 c 2
 78 223 l 1
 42 223 l 2
 1 223 -7 226 -7 236 c 0
 -7 248 -2 248 39 248 c 2
 78 248 l 1
 78 730 l 1
 39 730 l 2
 -5 730 -7 729 -7 741 c 0
 -7 750 -2 753 42 753 c 2
 78 753 l 1
 78 807 l 2
 78 873 93 940 132 940 c 0xec
EndSplineSet
EndChar

StartChar: glyph
Encoding: 32 70 32
Width: 500
Flags: W
HStem: 204 21<-30.9505 63 79 176.887> 442 24<-30.9757 57 88 176.957>
VStem: 50 49<655 918.179> 63 16<71.2079 203.474 225 418.099> 70 6<66.2475 118.533>
LayerCount: 3
Fore
SplineSet
70 66 m 1xc8
 70 96 l 2xc8
 70 108 63 134 63 159 c 1
 66 204 l 1
 23 204 l 2
 -24 204 -31 204 -31 213 c 0
 -31 225 -26 225 22 225 c 2
 63 225 l 1
 63 282 l 2xd0
 63 313 57 362 57 390 c 2
 57 442 l 1
 22 442 l 2
 -23 442 -31 444 -31 453 c 0
 -31 466 -26 466 19 466 c 2
 57 466 l 1
 57 478 l 2
 57 484 51 584 51 692 c 0
 51 797 50 848 50 875 c 0
 50 903 51 905 57 911 c 0
 70 923 90 920 96 908 c 0
 99 902 99 897 99 877 c 2
 99 771 l 2
 99 707 96 655 96 655 c 1
 96 655 99 655 99 658 c 0xe0
 117 706 162 791 219 878 c 0
 244 917 295 993 298 993 c 1
 298 993 291 979 282 963 c 0
 191 821 127 683 102 578 c 0
 93 546 88 503 88 481 c 2
 88 466 l 1
 127 466 l 2
 171 466 177 462 177 453 c 0
 177 444 171 442 127 442 c 2
 88 442 l 1
 88 430 l 2
 88 424 82 381 82 339 c 0
 82 298 79 253 79 244 c 2
 79 225 l 1
 120 225 l 2
 171 225 177 222 177 213 c 0
 177 204 168 204 120 204 c 0
 79 204 79 204 79 197 c 0xd0
 79 194 76 162 76 127 c 0
 76 94 71 71 70 66 c 1xc8
EndSplineSet
EndChar

StartChar: glyph
Encoding: 33 71 33
Width: 500
Flags: W
HStem: 217 24<-18.9962 60 108 185.996> 724 23<-18.9053 87.9984 111 185.996>
VStem: 60 52<29.4531 197.741> 60 48<68.1973 217 241 482.06> 75 22<442.499 708.903>
LayerCount: 3
Fore
SplineSet
108 724 m 1xd0
 100 707 97 648 97 602 c 0xc8
 97 560 105 371 105 269 c 1
 108 241 l 1
 142 241 l 2
 180 241 186 238 186 229 c 0
 186 220 180 217 142 217 c 2
 108 217 l 1
 108 200 l 2xd0
 108 152 112 92 112 67 c 0
 112 43 103 23 79 30 c 0
 68 33 58 43 58 58 c 0
 58 67 60 78 60 109 c 2xe0
 60 217 l 1
 28 217 l 2
 -14 217 -19 220 -19 229 c 0
 -19 241 -14 241 25 241 c 2
 60 241 l 1
 60 266 l 2xd0
 60 278 66 326 66 374 c 0
 66 519 75 591 75 630 c 0xc8
 75 662 85 708 88 718 c 0
 88 721 86 724 38 724 c 0
 -15 724 -19 722 -19 734 c 0
 -19 741 -15 744 -12 744 c 0
 -9 744 14 747 42 747 c 2
 94 747 l 1
 105 779 116 822 129 850 c 0
 157 904 186 939 228 961 c 0
 253 973 262 973 240 961 c 0
 228 955 214 949 199 933 c 0
 168 902 154 873 136 825 c 0
 129 807 111 753 111 747 c 1
 145 747 l 2
 163 747 180 744 183 744 c 0
 186 741 186 741 186 734 c 0
 186 725 180 724 142 724 c 2
 108 724 l 1xd0
EndSplineSet
EndChar

StartChar: glyph
Encoding: 34 72 34
Width: 500
Flags: W
HStem: 192 26<64.7829 267.945> 523 37<85.2102 243.445> 701 18<64.7829 267.892> 878 20G<83 98.5 284 287>
VStem: -36 45<628.721 791.615> 319 20<651.362 743.654>
LayerCount: 3
Fore
SplineSet
66 701 m 0
 60 707 63 716 69 719 c 0
 74 721 120 722 168 722 c 0
 214 722 262 721 265 719 c 0
 271 716 271 704 262 701 c 0
 257 699 209 699 162 699 c 0
 115 699 69 699 66 701 c 0
339 690 m 0
 339 594 268 523 165 523 c 0
 69 523 -10 588 -31 653 c 0
 -34 664 -36 682 -36 702 c 0
 -36 782 -10 833 38 873 c 0
 58 890 75 898 91 898 c 0
 106 898 123 890 117 873 c 0
 114 864 108 858 86 845 c 0
 41 816 9 776 9 710 c 0
 9 641 43 602 92 574 c 0
 114 562 134 560 162 560 c 2
 178 560 l 2
 200 560 214 562 231 571 c 0
 280 594 319 637 319 707 c 0
 319 758 300 798 268 829 c 1
 306 804 339 745 339 690 c 0
217 218 m 0
 249 218 268 223 268 204 c 0
 268 198 268 198 262 195 c 0
 259 194 212 192 166 192 c 0
 120 192 74 194 69 195 c 0
 63 198 60 208 66 214 c 0
 71 215 162 218 217 218 c 0
EndSplineSet
EndChar

StartChar: glyph
Encoding: 35 73 35
Width: 500
Flags: W
HStem: 7 21G<-18 -7> 471 23<48.0429 139 168 252.922> 736 23<48.0662 127 175 252.996>
VStem: 127 48<521.972 736 759 947.344> 139 26<272.718 471 494 706.053>
LayerCount: 3
Fore
SplineSet
-21 7 m 1xe8
 7 21 47 52 67 82 c 0
 99 133 133 204 133 295 c 0
 133 324 139 407 139 444 c 0
 139 453 139 462 139 471 c 1
 99 471 l 2
 54 471 48 472 48 481 c 0
 48 494 53 494 98 494 c 2
 139 494 l 1
 139 522 l 2xe8
 139 537 133 575 133 611 c 0
 133 646 127 693 127 708 c 2
 127 736 l 1
 91 736 l 2
 53 736 48 734 48 746 c 0
 48 756 53 759 94 759 c 2
 127 759 l 1
 127 777 l 2xf0
 127 817 125 865 125 894 c 0
 125 921 125 941 139 945 c 0xe8
 162 954 176 938 176 908 c 0
 176 888 175 853 175 790 c 2
 175 759 l 1
 212 759 l 2
 233 759 247 756 250 756 c 0
 253 753 253 753 253 746 c 0
 253 737 247 736 208 736 c 2
 175 736 l 1xf0
 175 733 168 531 168 515 c 2
 168 494 l 1
 205 494 l 2
 247 494 253 491 253 481 c 0
 253 472 250 471 205 471 c 2
 165 471 l 1
 165 428 l 2
 165 223 113 93 31 33 c 0
 19 24 -15 7 -21 7 c 1xe8
EndSplineSet
EndChar

StartChar: glyph
Encoding: 36 74 36
Width: 500
Flags: W
HStem: 193 25<85.0241 161 221 292.982> 435 24<85.0158 179 230 292.952>
VStem: 161 60<143.289 193 221 434.906> 179 51<221.188 435 459 685.037> 192 38<459.141 862.349>
LayerCount: 3
Fore
SplineSet
218 180 m 1xe0
 218 166 213 149 208 143 c 0
 205 138 178 129 167 136 c 0
 162 140 161 167 161 193 c 1
 131 193 l 2
 93 193 85 197 85 206 c 0
 85 218 90 218 128 218 c 0
 156 218 159 221 161 221 c 1
 161 229 l 1xe0
 162 249 167 326 173 372 c 0
 176 400 179 426 179 429 c 2
 179 435 l 1
 138 435 l 2
 90 435 85 437 85 446 c 0
 85 459 90 459 138 459 c 2
 179 459 l 1
 179 468 l 1xd0
 182 492 192 582 192 654 c 0
 192 716 195 768 195 801 c 0
 195 818 193 828 192 834 c 0xc8
 171 899 121 935 13 952 c 1
 113 945 178 915 208 868 c 0
 224 844 233 819 233 777 c 0
 233 747 230 508 230 477 c 2
 230 459 l 1
 255 459 l 2
 287 459 293 455 293 446 c 0
 293 437 286 435 255 435 c 2
 230 435 l 1xd0
 230 435 224 389 224 335 c 0
 224 281 221 237 221 230 c 2
 221 218 l 1
 252 218 l 2
 287 218 293 215 293 206 c 0
 293 197 287 193 252 193 c 2
 221 193 l 1
 218 180 l 1xe0
EndSplineSet
EndChar

StartChar: glyph
Encoding: 37 75 37
Width: 500
Flags: W
HStem: 280 6<270.612 279.291> 453 23<-5.61173 49 102 180.996> 718 23<-22.2171 181.213>
VStem: 49 57<380.806 453> 49 46<341.517 452.797>
LayerCount: 3
Fore
SplineSet
-21 719 m 0xe0
 -27 725 -24 735 -18 738 c 0
 -13 739 35 741 82 741 c 0
 129 741 175 739 178 738 c 0
 184 735 184 722 175 719 c 0
 170 718 124 718 76 718 c 0
 30 718 -18 718 -21 719 c 0xe0
106 440 m 1xf0
 106 427 95 397 95 380 c 0xe8
 95 314 200 296 278 286 c 0
 306 283 304 280 292 280 c 0
 283 280 275 283 269 283 c 0
 192 283 76 316 55 359 c 0
 49 371 49 374 49 413 c 2
 49 453 l 1
 19 453 l 2
 -19 453 -24 454 -24 464 c 2
 -24 465 l 2
 -24 476 -19 476 76 476 c 0
 130 476 172 473 175 473 c 0
 181 470 181 470 181 464 c 0
 181 454 175 453 136 453 c 2
 102 453 l 1
 106 440 l 1xf0
EndSplineSet
EndChar

StartChar: glyph
Encoding: 38 76 38
Width: 500
Flags: W
HStem: 385 17<-3.57946 203> 649 18<-3.38766 200.563> 695 21G<93.7333 101.218>
VStem: 70 56<735.155 893.711>
LayerCount: 3
Fore
SplineSet
1 385 m 0
 -5 388 -9 396 -2 402 c 0
 1 404 50 405 96 405 c 0
 144 405 192 404 196 402 c 0
 203 399 203 399 203 393 c 0
 203 387 203 388 196 385 c 0
 193 384 147 382 101 382 c 0
 53 382 5 384 1 385 c 0
-2 649 m 0
 -9 655 -5 664 1 667 c 0
 5 669 53 670 101 670 c 0
 147 670 193 669 196 667 c 0
 203 664 206 652 196 649 c 0
 192 647 144 647 96 647 c 0
 50 647 1 647 -2 649 c 0
82 770 m 0
 76 812 70 851 70 857 c 0
 70 872 76 888 82 894 c 0
 104 909 126 892 126 869 c 0
 126 868 98 695 98 695 c 1
 98 695 89 729 82 770 c 0
EndSplineSet
EndChar

StartChar: glyph
Encoding: 39 77 39
Width: 500
Flags: W
HStem: 422 24<-2.84375 199.999> 646 20G<93.5 102.742> 687 24<-2.64712 199.888>
VStem: 77 38<469.72 664.25>
LayerCount: 3
Fore
SplineSet
1 426 m 0
 -5 429 -8 436 -2 442 c 0
 1 444 49 446 95 446 c 0
 143 446 189 444 194 442 c 0
 200 439 200 439 200 433 c 0
 200 427 200 429 194 426 c 0
 191 424 146 422 100 422 c 0
 53 422 6 424 1 426 c 0
86 496 m 0
 78 530 77 546 77 558 c 2
 77 575 l 2
 77 597 92 666 95 666 c 1
 95 666 101 657 107 635 c 0
 117 603 115 590 115 566 c 0
 115 541 117 533 107 503 c 0
 101 481 95 467 95 467 c 1
 95 467 89 481 86 496 c 0
-2 689 m 0
 -8 695 -5 704 1 707 c 0
 6 709 53 711 101 711 c 0
 147 711 194 709 197 707 c 0
 203 704 203 692 194 689 c 0
 189 687 143 687 95 687 c 0
 49 687 1 687 -2 689 c 0
EndSplineSet
EndChar

StartChar: glyph
Encoding: 40 78 40
Width: 500
Flags: W
HStem: 223 26<-3.96875 202.95> 730 23<-5.51123 200.978>
VStem: 70 57<258.884 423.331>
LayerCount: 3
Fore
SplineSet
153 249 m 0
 186 249 203 254 203 235 c 0
 203 229 203 229 197 226 c 0
 194 225 146 223 100 223 c 0
 52 223 2 225 -2 226 c 0
 -8 229 -8 238 -2 245 c 0
 2 246 96 249 153 249 c 0
98 462 m 0
 100 462 127 289 127 286 c 0
 127 265 107 251 89 260 c 0
 76 266 70 274 70 295 c 0
 70 311 95 462 98 462 c 0
-2 731 m 0
 -8 738 -8 747 -2 750 c 0
 2 751 52 753 100 753 c 0
 146 753 194 751 197 750 c 0
 203 747 206 735 197 731 c 0
 192 730 144 730 96 730 c 0
 50 730 1 730 -2 731 c 0
EndSplineSet
EndChar

StartChar: glyph
Encoding: 41 79 41
Width: 500
Flags: W
HStem: 232 22<-20.9531 87.9962 111 186.796>
VStem: 59 52<722.895 936.345> 60 42<511.028 878.608> 76 29<260.449 541.344> 88 17<255.875 294.159>
LayerCount: 3
Fore
SplineSet
234 16 m 0xc0
 187 41 153 76 127 127 c 0
 116 153 99 200 91 232 c 1
 -15 232 l 2
 -18 232 -21 235 -21 241 c 0
 -21 254 -18 254 36 254 c 0
 83 254 88 257 88 260 c 0x88
 85 269 76 315 76 348 c 0x90
 76 389 60 443 60 717 c 0xa0
 60 844 59 891 59 911 c 0
 59 955 102 959 111 922 c 0xc0
 111 916 102 805 102 670 c 0xa0
 102 414 99 355 99 295 c 0
 99 277 105 263 105 260 c 2
 105 254 l 1x88
 139 254 l 2
 177 254 187 250 187 241 c 0
 187 232 180 232 142 232 c 2
 111 232 l 1
 111 223 l 1
 128 138 174 50 237 16 c 0
 262 4 259 4 234 16 c 0xc0
EndSplineSet
EndChar

StartChar: glyph
Encoding: 42 80 42
Width: 500
Flags: W
HStem: 223 26<9.7829 212.95> 567 15<60.7144 95.8075 127.195 140.811> 730 23<9.7829 213.058>
VStem: 96 31<582.993 720.763> 99 23<546.957 567>
LayerCount: 3
Fore
SplineSet
164 249 m 0xe0
 196 249 213 254 213 235 c 0
 213 229 213 229 207 226 c 0
 204 225 158 223 111 223 c 0
 65 223 19 225 14 226 c 0
 8 229 5 238 11 245 c 0
 16 246 108 249 164 249 c 0xe0
87 582 m 0
 94 582 96 585 96 593 c 0
 96 600 93 613 93 633 c 2
 93 678 l 2
 93 707 94 716 105 721 c 0
 116 724 133 716 133 701 c 0
 133 694 128 687 128 648 c 0
 128 611 127 596 127 590 c 0xf0
 127 585 127 585 130 585 c 2
 131 585 l 2
 150 585 161 570 161 554 c 0
 161 537 139 520 116 531 c 0
 104 537 102 542 99 557 c 1
 99 567 l 1xe8
 -10 567 l 2
 -4 567 80 582 87 582 c 0
137 548 m 0
 144 551 144 563 141 567 c 0
 137 570 131 567 128 567 c 0
 122 567 122 563 122 557 c 0xe8
 122 548 133 545 137 548 c 0
11 731 m 0
 5 738 8 747 14 750 c 0
 19 751 65 753 113 753 c 0
 159 753 207 751 210 750 c 0
 216 747 216 735 207 731 c 0
 202 730 154 730 107 730 c 0
 60 730 14 730 11 731 c 0
EndSplineSet
EndChar

StartChar: glyph
Encoding: 43 81 43
Width: 500
Flags: W
HStem: 223 26<-3.96875 199.95> 563 58<5.09922 109.283> 730 23<-5.51123 200.058>
VStem: 154 34<429.465 512.35>
LayerCount: 3
Fore
SplineSet
151 249 m 0
 183 249 200 254 200 235 c 0
 200 229 200 229 194 226 c 0
 191 225 145 223 98 223 c 0
 51 223 3 225 -2 226 c 0
 -8 229 -8 238 -2 245 c 0
 3 246 95 249 151 249 c 0
154 462 m 0
 154 514 104 563 43 563 c 0
 11 563 -10 591 14 614 c 0
 23 624 34 624 55 621 c 0
 128 605 188 554 188 488 c 0
 188 443 163 402 112 383 c 0
 100 377 68 371 58 371 c 1
 58 371 64 374 77 377 c 0
 123 389 154 417 154 462 c 0
-2 731 m 0
 -8 738 -8 747 -2 750 c 0
 3 751 52 753 100 753 c 0
 146 753 194 751 197 750 c 0
 203 747 203 735 194 731 c 0
 189 730 143 730 95 730 c 0
 49 730 1 730 -2 731 c 0
EndSplineSet
EndChar

StartChar: glyph
Encoding: 44 82 44
Width: 500
Flags: W
HStem: 191 25<-32.976 40 100 174.973> 433 23<-32.9941 29.9927 83.0023 174.981> 951 5<262.885 308>
VStem: 23 44<598.494 862.412> 30 53<365.501 433 456.074 686.686> 40 57<138.358 191 216.17 432.837> 40 47<216.703 432.837>
LayerCount: 3
Fore
SplineSet
74 137 m 0xe4
 50 137 40 150 40 174 c 2
 40 191 l 1
 10 191 l 2
 -25 191 -33 194 -33 204 c 0
 -33 216 -28 216 7 216 c 0
 38 216 40 219 40 222 c 2
 40 321 l 2xe4
 40 375 30 424 30 427 c 2
 30 433 l 1
 7 433 l 2
 -25 433 -33 435 -33 444 c 0
 -33 456 -27 456 4 456 c 0
 20 456 30 459 30 459 c 1xe8
 30 459 24 526 24 607 c 0
 24 674 23 721 23 754 c 0xf0
 23 811 26 828 40 854 c 0xe2
 55 885 89 908 127 923 c 0
 163 939 225 956 278 956 c 2
 308 956 l 1
 278 951 l 1
 188 939 132 920 100 885 c 0
 78 860 67 835 67 794 c 0xf0
 67 746 80 532 80 469 c 1
 83 456 l 1
 121 456 l 2
 169 456 175 453 175 444 c 0
 175 435 166 433 121 433 c 0
 86 433 83 436 83 433 c 0xe8
 83 430 87 396 87 364 c 0xe2
 87 332 94 285 97 261 c 1
 97 216 l 1
 131 216 l 2
 166 216 175 213 175 204 c 0
 175 194 166 191 131 191 c 2
 100 191 l 1
 100 181 l 2
 100 153 92 140 74 137 c 0xe4
EndSplineSet
EndChar

StartChar: glyph
Encoding: 45 83 45
Width: 500
Flags: W
HStem: 210 22<-17.9465 99 161.077 186.94> 714 23<-17.9978 7.30465 67 187.328>
VStem: 13 57<555.612 714> 102 59<145.775 210>
LayerCount: 3
Fore
SplineSet
131 144 m 0
 111 144 105 165 102 190 c 2
 99 210 l 1
 -12 210 l 2
 -15 210 -18 213 -18 219 c 0
 -18 232 -15 232 45 232 c 2
 102 232 l 1
 102 247 l 2
 102 373 84 355 45 515 c 0
 23 597 13 648 13 680 c 0
 13 712 7 714 -3 714 c 0
 -15 714 -18 715 -18 725 c 0
 -18 731 -18 731 -6 734 c 0
 7 737 7 737 7 746 c 0
 13 782 51 817 111 848 c 0
 144 863 176 876 208 885 c 0
 244 894 265 894 238 885 c 0
 147 857 73 800 67 746 c 1
 64 737 l 1
 121 737 l 2
 156 737 181 734 184 734 c 0
 190 731 190 717 181 714 c 1
 67 714 l 1
 67 705 l 2
 67 698 70 686 70 674 c 0
 70 638 84 586 111 475 c 0
 139 358 148 324 154 279 c 0
 161 235 159 232 165 232 c 2
 168 232 l 2
 184 232 187 228 187 219 c 0
 187 210 184 210 168 210 c 2
 161 210 l 1
 161 196 l 2
 161 164 147 144 131 144 c 0
EndSplineSet
EndChar

StartChar: glyph
Encoding: 46 84 46
Width: 500
Flags: W
HStem: 0 9<129.872 189.444> 231 24<-37.994 47 83 169.993> 473 23<-37.994 47 89 169.973>
VStem: 39 56<753.785 946.578> 47 42<255.297 473 496 915.045> 47 36<57.0129 231 255 471.578>
LayerCount: 3
Fore
SplineSet
331 108 m 1xe4
 303 54 238 0 152 0 c 0
 103 0 75 29 59 69 c 0
 53 88 47 135 47 195 c 2
 47 231 l 1
 15 231 l 2
 -30 231 -38 234 -38 243 c 0
 -38 255 -33 255 9 255 c 2
 47 255 l 1xe4
 47 473 l 1
 12 473 l 2
 -30 473 -38 474 -38 484 c 0
 -38 496 -30 496 9 496 c 2
 47 496 l 1
 47 539 l 2xe8
 47 561 41 653 41 749 c 0
 41 852 39 896 39 916 c 0
 39 941 47 947 69 947 c 0
 87 947 95 935 95 918 c 0xf0
 95 912 92 824 92 722 c 0
 92 621 89 530 89 517 c 2
 89 496 l 1
 123 496 l 2
 161 496 170 493 170 484 c 0
 170 474 164 473 123 473 c 2
 89 473 l 1
 89 382 l 2xe8
 89 331 83 283 83 274 c 2
 83 255 l 1
 120 255 l 2
 164 255 170 252 170 243 c 0
 170 234 161 231 120 231 c 2
 83 231 l 1
 83 223 l 2
 83 217 81 188 81 157 c 0
 81 75 79 55 104 31 c 0
 120 15 133 9 158 9 c 0
 212 9 297 55 331 108 c 1xe4
EndSplineSet
EndChar

StartChar: glyph
Encoding: 47 85 47
Width: 500
Flags: W
HStem: 446 24<-18.019 51 91 186.995> 711 20<-20.9818 39 94.2027 186.957>
VStem: 39 49<489.781 710.923 735.092 881.194> 51 34<470 679.312>
LayerCount: 3
Fore
SplineSet
253 121 m 2xc0
 253 121 244 126 232 138 c 1
 238 132 245 127 253 121 c 2xc0
111 904 m 0
 111 867 94 745 94 738 c 0
 94 735 98 735 136 735 c 0
 161 735 178 731 181 731 c 0
 184 728 187 728 187 722 c 0
 187 713 181 711 133 711 c 0
 91 711 88 711 88 705 c 0xe0
 85 691 85 647 85 602 c 2
 85 488 l 1xd0
 88 470 l 1xe0
 133 470 l 2
 161 470 181 466 184 466 c 0
 187 466 187 460 187 457 c 0
 187 448 181 446 133 446 c 2
 91 446 l 1
 91 434 l 1
 110 314 156 218 229 141 c 1
 145 214 91 312 64 419 c 2
 57 446 l 1
 -18 446 l 1
 -24 449 -21 463 -15 466 c 0
 -12 466 4 470 22 470 c 2
 51 470 l 1
 51 479 l 1xd0
 42 517 39 593 39 659 c 2
 39 711 l 1
 13 711 l 2
 -18 711 -21 710 -21 722 c 0
 -21 731 -15 731 16 731 c 1
 39 735 l 1
 39 762 l 2xe0
 39 819 51 892 54 901 c 0
 61 913 67 918 76 921 c 0
 91 927 108 919 111 904 c 0
EndSplineSet
EndChar

StartChar: glyph
Encoding: 48 86 48
Width: 500
Flags: W
HStem: 176 26<-5.2171 197.95> 418 23<-6.99623 66 123 197.982>
VStem: 66 57<355.426 418 441 667.303> 93 16<820.794 887.087>
LayerCount: 3
Fore
SplineSet
149 202 m 0xc0
 181 202 198 207 198 188 c 0
 198 182 198 182 192 179 c 0
 189 177 144 176 98 176 c 0
 52 176 4 177 -1 179 c 0
 -7 182 -10 191 -4 198 c 0
 1 199 93 202 149 202 c 0xc0
78 358 m 0
 69 370 66 372 66 396 c 2
 66 418 l 1
 36 418 l 2
 -2 418 -7 419 -7 429 c 0
 -7 441 -2 441 36 441 c 2
 66 441 l 1
 66 447 l 2xe0
 66 466 93 968 93 974 c 2
 93 974 109 862 109 721 c 0xd0
 109 580 123 456 123 450 c 2
 123 441 l 1
 156 441 l 2
 192 441 198 438 198 429 c 0
 198 419 192 418 156 418 c 2
 123 418 l 1xe0
 126 399 l 1
 126 378 123 364 113 355 c 0
 107 349 102 352 93 352 c 0xd0
 81 352 84 352 78 358 c 0
EndSplineSet
EndChar

StartChar: glyph
Encoding: 49 87 49
Width: 500
Flags: W
HStem: 245 25<-29.9969 47.9898 96 118 153 174.998> 752 23<-29.9813 64 79 174.995> 906 20G<70 70>
VStem: 48 48<56.6909 245 270.417 321.071> 55 32<395.685 693.755> 64 9<775 925.835>
LayerCount: 3
Fore
SplineSet
108 291 m 2xf0
 102 303 99 314 96 317 c 1
 93 323 l 1
 93 314 l 2
 93 308 96 297 96 288 c 2
 96 270 l 1
 118 270 l 1
 108 291 l 2xf0
142 270 m 1
 169 270 l 1
 175 266 175 263 175 257 c 0
 175 251 172 248 162 245 c 1
 153 245 l 1
 153 245 165 222 178 194 c 0
 218 112 260 40 307 -31 c 1
 250 46 172 166 139 228 c 1
 127 245 l 1
 96 245 l 1
 96 228 l 2
 96 216 99 183 99 152 c 2
 99 95 l 2
 99 77 99 71 93 65 c 0
 79 48 47 57 47 83 c 0
 47 92 48 108 48 149 c 2
 48 245 l 1
 16 245 l 2
 -26 245 -30 248 -30 257 c 0
 -30 270 -26 270 13 270 c 0
 34 270 48 273 48 273 c 1xf0
 48 273 55 374 55 498 c 0xe8
 55 621 64 730 64 736 c 2
 64 752 l 1
 19 752 l 2
 -29 752 -30 750 -30 763 c 0
 -30 772 -24 775 24 775 c 2
 64 775 l 1
 64 847 l 2
 64 886 70 923 70 926 c 1
 70 923 73 904 73 878 c 0xe4
 73 850 76 815 76 800 c 1
 79 775 l 1
 121 775 l 2
 149 775 169 772 172 772 c 0
 175 769 175 769 175 763 c 0
 175 753 169 752 121 752 c 2
 76 752 l 1
 79 739 l 1
 79 733 82 679 82 622 c 0
 82 565 87 505 87 490 c 0xe8
 87 433 105 379 133 303 c 1
 142 270 l 1
EndSplineSet
EndChar

StartChar: glyph
Encoding: 50 88 50
Width: 500
Flags: W
HStem: 425 17<-40.3935 166> 512 6<320.979 342.215> 687 23<-41.9788 30 87 165.966>
VStem: 30 60<612.715 687> 30 48<570.602 686.766>
LayerCount: 3
Fore
SplineSet
-36 425 m 0xe0
 -42 428 -45 436 -39 442 c 0
 -36 444 13 445 59 445 c 0
 107 445 155 444 159 442 c 0
 166 439 166 439 166 433 c 0
 166 427 166 428 159 425 c 0
 156 424 110 422 64 422 c 0
 16 422 -32 424 -36 425 c 0xe0
90 672 m 1xf0
 90 658 78 627 78 612 c 0
 78 592 87 578 106 566 c 0
 136 544 181 536 343 518 c 0
 388 512 388 512 340 512 c 0
 198 512 122 533 78 555 c 0xe8
 53 567 42 575 36 590 c 0
 30 603 30 603 30 644 c 2
 30 687 l 1
 1 687 l 2
 -35 687 -42 686 -42 698 c 0
 -42 704 -39 707 -36 707 c 0
 -32 709 16 710 64 710 c 0
 119 710 166 715 166 698 c 0
 166 689 159 687 121 687 c 2
 87 687 l 1
 90 672 l 1xf0
EndSplineSet
EndChar

StartChar: glyph
Encoding: 51 89 51
Width: 500
Flags: W
HStem: 73 0 751 23<-18.9005 100 162.739 189.918> 814 20G<129 144.5>
VStem: 12 57<182.135 406.611> 100 60<611.96 741 786 827.392>
LayerCount: 3
Fore
SplineSet
136 834 m 0
 153 834 163 798 163 780 c 0
 163 774 162 774 171 774 c 0
 183 774 190 771 190 761 c 0
 190 752 180 751 168 751 c 0
 159 751 160 751 160 720 c 0
 160 684 145 637 120 543 c 0
 99 449 91 421 85 385 c 0
 74 335 69 288 69 256 c 0
 69 241 71 230 72 221 c 0
 88 157 145 100 226 73 c 0
 251 63 242 63 214 73 c 0
 120 100 37 157 12 214 c 0
 6 227 12 231 12 259 c 0
 12 313 22 361 57 512 c 0
 85 623 100 675 100 711 c 2
 100 741 l 1
 105 751 l 1
 48 751 l 2
 -15 751 -19 749 -19 761 c 0
 -19 768 -15 771 -12 771 c 0
 -9 771 17 774 48 774 c 2
 100 774 l 1
 105 786 l 1
 109 817 122 834 136 834 c 0
EndSplineSet
EndChar

StartChar: glyph
Encoding: 52 90 52
Width: 500
Flags: W
HStem: 426 20<167.106 243 297 374.582> 615 6<-46.9399 62.6907> 687 24<169.353 372.209>
VStem: 243 57<452 493.972> 255 48<449.193 563.597>
LayerCount: 3
Fore
SplineSet
243 461 m 2xf0
 243 476 255 506 255 523 c 0
 255 555 227 577 167 590 c 0
 136 600 107 615 16 615 c 0
 -27 615 -46 621 -47 621 c 2
 -26 621 l 2
 110 621 204 603 255 578 c 0
 298 556 303 556 303 495 c 0xe8
 303 473 300 455 300 452 c 1
 297 446 l 1
 329 446 l 2
 367 446 375 442 375 433 c 0
 375 427 375 429 369 426 c 0
 366 424 318 422 272 422 c 0
 224 422 178 424 173 426 c 0
 170 426 167 427 167 433 c 0
 167 446 170 446 209 446 c 2
 243 446 l 1
 243 461 l 2xf0
170 689 m 0
 164 695 167 704 173 707 c 0
 178 709 224 711 272 711 c 0
 318 711 366 709 369 707 c 0
 375 704 378 692 369 689 c 0
 364 687 315 687 267 687 c 0
 221 687 173 687 170 689 c 0
EndSplineSet
EndChar

StartChar: glyph54
Encoding: 54 46 54
Width: 500
Flags: W
HStem: 445 66<-35.0766 204.771>
LayerCount: 3
Fore
SplineSet
-42 483 m 0
 -42 499 -34 511 -17 511 c 0
 -8 511 9 508 43 502 c 0
 86 494 121 493 152 493 c 2
 191 493 l 2
 242 493 283 511 314 537 c 0
 323 543 331 556 337 559 c 0
 343 562 339 556 326 543 c 0
 272 493 214 463 148 451 c 0
 120 445 66 445 34 445 c 0
 -14 445 -27 453 -36 468 c 0
 -39 474 -42 477 -42 483 c 0
EndSplineSet
EndChar

StartChar: glyph55
Encoding: 55 44 55
Width: 500
Flags: W
HStem: 445 66<-35.0766 204.771>
LayerCount: 3
Fore
SplineSet
-42 483 m 0
 -42 499 -34 511 -17 511 c 0
 -8 511 9 508 43 502 c 0
 86 494 121 493 152 493 c 2
 191 493 l 2
 242 493 283 511 314 537 c 0
 323 543 331 556 337 559 c 0
 343 562 339 556 326 543 c 0
 272 493 214 463 148 451 c 0
 120 445 66 445 34 445 c 0
 -14 445 -27 453 -36 468 c 0
 -39 474 -42 477 -42 483 c 0
EndSplineSet
EndChar

StartChar: glyph56
Encoding: 56 33 56
Width: 500
Flags: W
HStem: 445 66<-35.0766 204.771>
LayerCount: 3
Fore
SplineSet
-42 483 m 0
 -42 499 -34 511 -17 511 c 0
 -8 511 9 508 43 502 c 0
 86 494 121 493 152 493 c 2
 191 493 l 2
 242 493 283 511 314 537 c 0
 323 543 331 556 337 559 c 0
 343 562 339 556 326 543 c 0
 272 493 214 463 148 451 c 0
 120 445 66 445 34 445 c 0
 -14 445 -27 453 -36 468 c 0
 -39 474 -42 477 -42 483 c 0
EndSplineSet
EndChar

StartChar: glyph57
Encoding: 57 167 57
Width: 500
Flags: W
HStem: 445 66<-35.0766 204.771>
LayerCount: 3
Fore
SplineSet
-42 483 m 0
 -42 499 -34 511 -17 511 c 0
 -8 511 9 508 43 502 c 0
 86 494 121 493 152 493 c 2
 191 493 l 2
 242 493 283 511 314 537 c 0
 323 543 331 556 337 559 c 0
 343 562 339 556 326 543 c 0
 272 493 214 463 148 451 c 0
 120 445 66 445 34 445 c 0
 -14 445 -27 453 -36 468 c 0
 -39 474 -42 477 -42 483 c 0
EndSplineSet
EndChar

StartChar: glyph58
Encoding: 58 36 58
Width: 500
Flags: W
HStem: 445 66<-35.0766 204.771>
LayerCount: 3
Fore
SplineSet
-42 483 m 0
 -42 499 -34 511 -17 511 c 0
 -8 511 9 508 43 502 c 0
 86 494 121 493 152 493 c 2
 191 493 l 2
 242 493 283 511 314 537 c 0
 323 543 331 556 337 559 c 0
 343 562 339 556 326 543 c 0
 272 493 214 463 148 451 c 0
 120 445 66 445 34 445 c 0
 -14 445 -27 453 -36 468 c 0
 -39 474 -42 477 -42 483 c 0
EndSplineSet
EndChar

StartChar: glyph59
Encoding: 59 37 59
Width: 500
Flags: W
HStem: 445 66<-35.0766 204.771>
LayerCount: 3
Fore
SplineSet
-42 483 m 0
 -42 499 -34 511 -17 511 c 0
 -8 511 9 508 43 502 c 0
 86 494 121 493 152 493 c 2
 191 493 l 2
 242 493 283 511 314 537 c 0
 323 543 331 556 337 559 c 0
 343 562 339 556 326 543 c 0
 272 493 214 463 148 451 c 0
 120 445 66 445 34 445 c 0
 -14 445 -27 453 -36 468 c 0
 -39 474 -42 477 -42 483 c 0
EndSplineSet
EndChar

StartChar: glyph60
Encoding: 60 38 60
Width: 500
Flags: W
HStem: 445 66<-35.0766 204.771>
LayerCount: 3
Fore
SplineSet
-42 483 m 0
 -42 499 -34 511 -17 511 c 0
 -8 511 9 508 43 502 c 0
 86 494 121 493 152 493 c 2
 191 493 l 2
 242 493 283 511 314 537 c 0
 323 543 331 556 337 559 c 0
 343 562 339 556 326 543 c 0
 272 493 214 463 148 451 c 0
 120 445 66 445 34 445 c 0
 -14 445 -27 453 -36 468 c 0
 -39 474 -42 477 -42 483 c 0
EndSplineSet
EndChar

StartChar: glyph61
Encoding: 61 47 61
Width: 500
Flags: W
HStem: 445 66<-35.0766 204.771>
LayerCount: 3
Fore
SplineSet
-42 483 m 0
 -42 499 -34 511 -17 511 c 0
 -8 511 9 508 43 502 c 0
 86 494 121 493 152 493 c 2
 191 493 l 2
 242 493 283 511 314 537 c 0
 323 543 331 556 337 559 c 0
 343 562 339 556 326 543 c 0
 272 493 214 463 148 451 c 0
 120 445 66 445 34 445 c 0
 -14 445 -27 453 -36 468 c 0
 -39 474 -42 477 -42 483 c 0
EndSplineSet
EndChar

StartChar: glyph62
Encoding: 62 40 62
Width: 500
Flags: W
HStem: 445 66<-35.0766 204.771>
LayerCount: 3
Fore
SplineSet
-42 483 m 0
 -42 499 -34 511 -17 511 c 0
 -8 511 9 508 43 502 c 0
 86 494 121 493 152 493 c 2
 191 493 l 2
 242 493 283 511 314 537 c 0
 323 543 331 556 337 559 c 0
 343 562 339 556 326 543 c 0
 272 493 214 463 148 451 c 0
 120 445 66 445 34 445 c 0
 -14 445 -27 453 -36 468 c 0
 -39 474 -42 477 -42 483 c 0
EndSplineSet
EndChar

StartChar: glyph63
Encoding: 63 41 63
Width: 500
Flags: W
HStem: 445 66<-35.0766 204.771>
LayerCount: 3
Fore
SplineSet
-42 483 m 0
 -42 499 -34 511 -17 511 c 0
 -8 511 9 508 43 502 c 0
 86 494 121 493 152 493 c 2
 191 493 l 2
 242 493 283 511 314 537 c 0
 323 543 331 556 337 559 c 0
 343 562 339 556 326 543 c 0
 272 493 214 463 148 451 c 0
 120 445 66 445 34 445 c 0
 -14 445 -27 453 -36 468 c 0
 -39 474 -42 477 -42 483 c 0
EndSplineSet
EndChar

StartChar: glyph64
Encoding: 64 61 64
Width: 500
Flags: W
HStem: 445 66<-35.0766 204.771>
LayerCount: 3
Fore
SplineSet
-42 483 m 0
 -42 499 -34 511 -17 511 c 0
 -8 511 9 508 43 502 c 0
 86 494 121 493 152 493 c 2
 191 493 l 2
 242 493 283 511 314 537 c 0
 323 543 331 556 337 559 c 0
 343 562 339 556 326 543 c 0
 272 493 214 463 148 451 c 0
 120 445 66 445 34 445 c 0
 -14 445 -27 453 -36 468 c 0
 -39 474 -42 477 -42 483 c 0
EndSplineSet
EndChar

StartChar: glyph65
Encoding: 65 63 65
Width: 500
Flags: W
HStem: 445 66<-35.0766 204.771>
LayerCount: 3
Fore
SplineSet
-42 483 m 0
 -42 499 -34 511 -17 511 c 0
 -8 511 9 508 43 502 c 0
 86 494 121 493 152 493 c 2
 191 493 l 2
 242 493 283 511 314 537 c 0
 323 543 331 556 337 559 c 0
 343 562 339 556 326 543 c 0
 272 493 214 463 148 451 c 0
 120 445 66 445 34 445 c 0
 -14 445 -27 453 -36 468 c 0
 -39 474 -42 477 -42 483 c 0
EndSplineSet
EndChar

StartChar: glyph66
Encoding: 66 49 66
Width: 500
Flags: W
HStem: 445 66<-35.0766 204.771>
LayerCount: 3
Fore
SplineSet
-42 483 m 0
 -42 499 -34 511 -17 511 c 0
 -8 511 9 508 43 502 c 0
 86 494 121 493 152 493 c 2
 191 493 l 2
 242 493 283 511 314 537 c 0
 323 543 331 556 337 559 c 0
 343 562 339 556 326 543 c 0
 272 493 214 463 148 451 c 0
 120 445 66 445 34 445 c 0
 -14 445 -27 453 -36 468 c 0
 -39 474 -42 477 -42 483 c 0
EndSplineSet
EndChar

StartChar: glyph67
Encoding: 67 50 67
Width: 500
Flags: W
HStem: 445 66<-35.0766 204.771>
LayerCount: 3
Fore
SplineSet
-42 483 m 0
 -42 499 -34 511 -17 511 c 0
 -8 511 9 508 43 502 c 0
 86 494 121 493 152 493 c 2
 191 493 l 2
 242 493 283 511 314 537 c 0
 323 543 331 556 337 559 c 0
 343 562 339 556 326 543 c 0
 272 493 214 463 148 451 c 0
 120 445 66 445 34 445 c 0
 -14 445 -27 453 -36 468 c 0
 -39 474 -42 477 -42 483 c 0
EndSplineSet
EndChar

StartChar: glyph68
Encoding: 68 51 68
Width: 500
Flags: W
HStem: 445 66<-35.0766 204.771>
LayerCount: 3
Fore
SplineSet
-42 483 m 0
 -42 499 -34 511 -17 511 c 0
 -8 511 9 508 43 502 c 0
 86 494 121 493 152 493 c 2
 191 493 l 2
 242 493 283 511 314 537 c 0
 323 543 331 556 337 559 c 0
 343 562 339 556 326 543 c 0
 272 493 214 463 148 451 c 0
 120 445 66 445 34 445 c 0
 -14 445 -27 453 -36 468 c 0
 -39 474 -42 477 -42 483 c 0
EndSplineSet
EndChar

StartChar: glyph69
Encoding: 69 52 69
Width: 500
Flags: W
HStem: 445 66<-35.0766 204.771>
LayerCount: 3
Fore
SplineSet
-42 483 m 0
 -42 499 -34 511 -17 511 c 0
 -8 511 9 508 43 502 c 0
 86 494 121 493 152 493 c 2
 191 493 l 2
 242 493 283 511 314 537 c 0
 323 543 331 556 337 559 c 0
 343 562 339 556 326 543 c 0
 272 493 214 463 148 451 c 0
 120 445 66 445 34 445 c 0
 -14 445 -27 453 -36 468 c 0
 -39 474 -42 477 -42 483 c 0
EndSplineSet
EndChar

StartChar: glyph70
Encoding: 70 53 70
Width: 500
Flags: W
HStem: 445 66<-35.0766 204.771>
LayerCount: 3
Fore
SplineSet
-42 483 m 0
 -42 499 -34 511 -17 511 c 0
 -8 511 9 508 43 502 c 0
 86 494 121 493 152 493 c 2
 191 493 l 2
 242 493 283 511 314 537 c 0
 323 543 331 556 337 559 c 0
 343 562 339 556 326 543 c 0
 272 493 214 463 148 451 c 0
 120 445 66 445 34 445 c 0
 -14 445 -27 453 -36 468 c 0
 -39 474 -42 477 -42 483 c 0
EndSplineSet
EndChar

StartChar: glyph71
Encoding: 71 54 71
Width: 500
Flags: W
HStem: 445 66<-35.0766 204.771>
LayerCount: 3
Fore
SplineSet
-42 483 m 0
 -42 499 -34 511 -17 511 c 0
 -8 511 9 508 43 502 c 0
 86 494 121 493 152 493 c 2
 191 493 l 2
 242 493 283 511 314 537 c 0
 323 543 331 556 337 559 c 0
 343 562 339 556 326 543 c 0
 272 493 214 463 148 451 c 0
 120 445 66 445 34 445 c 0
 -14 445 -27 453 -36 468 c 0
 -39 474 -42 477 -42 483 c 0
EndSplineSet
EndChar

StartChar: glyph72
Encoding: 72 55 72
Width: 500
Flags: W
HStem: 445 66<-35.0766 204.771>
LayerCount: 3
Fore
SplineSet
-42 483 m 0
 -42 499 -34 511 -17 511 c 0
 -8 511 9 508 43 502 c 0
 86 494 121 493 152 493 c 2
 191 493 l 2
 242 493 283 511 314 537 c 0
 323 543 331 556 337 559 c 0
 343 562 339 556 326 543 c 0
 272 493 214 463 148 451 c 0
 120 445 66 445 34 445 c 0
 -14 445 -27 453 -36 468 c 0
 -39 474 -42 477 -42 483 c 0
EndSplineSet
EndChar

StartChar: glyph73
Encoding: 73 56 73
Width: 500
Flags: W
HStem: 445 66<-35.0766 204.771>
LayerCount: 3
Fore
SplineSet
-42 483 m 0
 -42 499 -34 511 -17 511 c 0
 -8 511 9 508 43 502 c 0
 86 494 121 493 152 493 c 2
 191 493 l 2
 242 493 283 511 314 537 c 0
 323 543 331 556 337 559 c 0
 343 562 339 556 326 543 c 0
 272 493 214 463 148 451 c 0
 120 445 66 445 34 445 c 0
 -14 445 -27 453 -36 468 c 0
 -39 474 -42 477 -42 483 c 0
EndSplineSet
EndChar

StartChar: glyph74
Encoding: 74 57 74
Width: 500
Flags: W
HStem: 445 66<-35.0766 204.771>
LayerCount: 3
Fore
SplineSet
-42 483 m 0
 -42 499 -34 511 -17 511 c 0
 -8 511 9 508 43 502 c 0
 86 494 121 493 152 493 c 2
 191 493 l 2
 242 493 283 511 314 537 c 0
 323 543 331 556 337 559 c 0
 343 562 339 556 326 543 c 0
 272 493 214 463 148 451 c 0
 120 445 66 445 34 445 c 0
 -14 445 -27 453 -36 468 c 0
 -39 474 -42 477 -42 483 c 0
EndSplineSet
EndChar

StartChar: glyph75
Encoding: 75 48 75
Width: 500
Flags: W
HStem: 445 66<-35.0766 204.771>
LayerCount: 3
Fore
SplineSet
-42 483 m 0
 -42 499 -34 511 -17 511 c 0
 -8 511 9 508 43 502 c 0
 86 494 121 493 152 493 c 2
 191 493 l 2
 242 493 283 511 314 537 c 0
 323 543 331 556 337 559 c 0
 343 562 339 556 326 543 c 0
 272 493 214 463 148 451 c 0
 120 445 66 445 34 445 c 0
 -14 445 -27 453 -36 468 c 0
 -39 474 -42 477 -42 483 c 0
EndSplineSet
EndChar

StartChar: glyph76
Encoding: 76 45 76
Width: 500
Flags: W
HStem: 445 66<-35.0766 204.771>
LayerCount: 3
Fore
SplineSet
-42 483 m 0
 -42 499 -34 511 -17 511 c 0
 -8 511 9 508 43 502 c 0
 86 494 121 493 152 493 c 2
 191 493 l 2
 242 493 283 511 314 537 c 0
 323 543 331 556 337 559 c 0
 343 562 339 556 326 543 c 0
 272 493 214 463 148 451 c 0
 120 445 66 445 34 445 c 0
 -14 445 -27 453 -36 468 c 0
 -39 474 -42 477 -42 483 c 0
EndSplineSet
EndChar

StartChar: glyph77
Encoding: 77 95 77
Width: 500
Flags: W
HStem: 445 66<-35.0766 204.771>
LayerCount: 3
Fore
SplineSet
-42 483 m 0
 -42 499 -34 511 -17 511 c 0
 -8 511 9 508 43 502 c 0
 86 494 121 493 152 493 c 2
 191 493 l 2
 242 493 283 511 314 537 c 0
 323 543 331 556 337 559 c 0
 343 562 339 556 326 543 c 0
 272 493 214 463 148 451 c 0
 120 445 66 445 34 445 c 0
 -14 445 -27 453 -36 468 c 0
 -39 474 -42 477 -42 483 c 0
EndSplineSet
EndChar

StartChar: glyph78
Encoding: 78 196 78
Width: 500
Flags: W
HStem: 445 66<-35.0766 204.771>
LayerCount: 3
Fore
SplineSet
-42 483 m 0
 -42 499 -34 511 -17 511 c 0
 -8 511 9 508 43 502 c 0
 86 494 121 493 152 493 c 2
 191 493 l 2
 242 493 283 511 314 537 c 0
 323 543 331 556 337 559 c 0
 343 562 339 556 326 543 c 0
 272 493 214 463 148 451 c 0
 120 445 66 445 34 445 c 0
 -14 445 -27 453 -36 468 c 0
 -39 474 -42 477 -42 483 c 0
EndSplineSet
EndChar

StartChar: glyph79
Encoding: 79 214 79
Width: 500
Flags: W
HStem: 445 66<-35.0766 204.771>
LayerCount: 3
Fore
SplineSet
-42 483 m 0
 -42 499 -34 511 -17 511 c 0
 -8 511 9 508 43 502 c 0
 86 494 121 493 152 493 c 2
 191 493 l 2
 242 493 283 511 314 537 c 0
 323 543 331 556 337 559 c 0
 343 562 339 556 326 543 c 0
 272 493 214 463 148 451 c 0
 120 445 66 445 34 445 c 0
 -14 445 -27 453 -36 468 c 0
 -39 474 -42 477 -42 483 c 0
EndSplineSet
EndChar

StartChar: glyph80
Encoding: 80 220 80
Width: 500
Flags: W
HStem: 445 66<-35.0766 204.771>
LayerCount: 3
Fore
SplineSet
-42 483 m 0
 -42 499 -34 511 -17 511 c 0
 -8 511 9 508 43 502 c 0
 86 494 121 493 152 493 c 2
 191 493 l 2
 242 493 283 511 314 537 c 0
 323 543 331 556 337 559 c 0
 343 562 339 556 326 543 c 0
 272 493 214 463 148 451 c 0
 120 445 66 445 34 445 c 0
 -14 445 -27 453 -36 468 c 0
 -39 474 -42 477 -42 483 c 0
EndSplineSet
EndChar

StartChar: glyph81
Encoding: 81 228 81
Width: 500
Flags: W
HStem: 445 66<-35.0766 204.771>
LayerCount: 3
Fore
SplineSet
-42 483 m 0
 -42 499 -34 511 -17 511 c 0
 -8 511 9 508 43 502 c 0
 86 494 121 493 152 493 c 2
 191 493 l 2
 242 493 283 511 314 537 c 0
 323 543 331 556 337 559 c 0
 343 562 339 556 326 543 c 0
 272 493 214 463 148 451 c 0
 120 445 66 445 34 445 c 0
 -14 445 -27 453 -36 468 c 0
 -39 474 -42 477 -42 483 c 0
EndSplineSet
EndChar

StartChar: glyph82
Encoding: 82 246 82
Width: 500
Flags: W
HStem: 445 66<-35.0766 204.771>
LayerCount: 3
Fore
SplineSet
-42 483 m 0
 -42 499 -34 511 -17 511 c 0
 -8 511 9 508 43 502 c 0
 86 494 121 493 152 493 c 2
 191 493 l 2
 242 493 283 511 314 537 c 0
 323 543 331 556 337 559 c 0
 343 562 339 556 326 543 c 0
 272 493 214 463 148 451 c 0
 120 445 66 445 34 445 c 0
 -14 445 -27 453 -36 468 c 0
 -39 474 -42 477 -42 483 c 0
EndSplineSet
EndChar

StartChar: glyph83
Encoding: 83 252 83
Width: 500
Flags: W
HStem: 445 66<-35.0766 204.771>
LayerCount: 3
Fore
SplineSet
-42 483 m 0
 -42 499 -34 511 -17 511 c 0
 -8 511 9 508 43 502 c 0
 86 494 121 493 152 493 c 2
 191 493 l 2
 242 493 283 511 314 537 c 0
 323 543 331 556 337 559 c 0
 343 562 339 556 326 543 c 0
 272 493 214 463 148 451 c 0
 120 445 66 445 34 445 c 0
 -14 445 -27 453 -36 468 c 0
 -39 474 -42 477 -42 483 c 0
EndSplineSet
EndChar

StartChar: glyph84
Encoding: 84 60 84
Width: 500
Flags: W
HStem: 445 66<-35.0766 204.771>
LayerCount: 3
Fore
SplineSet
-42 483 m 0
 -42 499 -34 511 -17 511 c 0
 -8 511 9 508 43 502 c 0
 86 494 121 493 152 493 c 2
 191 493 l 2
 242 493 283 511 314 537 c 0
 323 543 331 556 337 559 c 0
 343 562 339 556 326 543 c 0
 272 493 214 463 148 451 c 0
 120 445 66 445 34 445 c 0
 -14 445 -27 453 -36 468 c 0
 -39 474 -42 477 -42 483 c 0
EndSplineSet
EndChar

StartChar: glyph85
Encoding: 85 62 85
Width: 500
Flags: W
HStem: 445 66<-35.0766 204.771>
LayerCount: 3
Fore
SplineSet
-42 483 m 0
 -42 499 -34 511 -17 511 c 0
 -8 511 9 508 43 502 c 0
 86 494 121 493 152 493 c 2
 191 493 l 2
 242 493 283 511 314 537 c 0
 323 543 331 556 337 559 c 0
 343 562 339 556 326 543 c 0
 272 493 214 463 148 451 c 0
 120 445 66 445 34 445 c 0
 -14 445 -27 453 -36 468 c 0
 -39 474 -42 477 -42 483 c 0
EndSplineSet
EndChar

StartChar: glyph86
Encoding: 86 64 86
Width: 500
Flags: W
HStem: 445 66<-35.0766 204.771>
LayerCount: 3
Fore
SplineSet
-42 483 m 0
 -42 499 -34 511 -17 511 c 0
 -8 511 9 508 43 502 c 0
 86 494 121 493 152 493 c 2
 191 493 l 2
 242 493 283 511 314 537 c 0
 323 543 331 556 337 559 c 0
 343 562 339 556 326 543 c 0
 272 493 214 463 148 451 c 0
 120 445 66 445 34 445 c 0
 -14 445 -27 453 -36 468 c 0
 -39 474 -42 477 -42 483 c 0
EndSplineSet
EndChar

StartChar: glyph87
Encoding: 87 8364 87
Width: 500
Flags: W
HStem: 445 66<-35.0766 204.771>
LayerCount: 3
Fore
SplineSet
-42 483 m 0
 -42 499 -34 511 -17 511 c 0
 -8 511 9 508 43 502 c 0
 86 494 121 493 152 493 c 2
 191 493 l 2
 242 493 283 511 314 537 c 0
 323 543 331 556 337 559 c 0
 343 562 339 556 326 543 c 0
 272 493 214 463 148 451 c 0
 120 445 66 445 34 445 c 0
 -14 445 -27 453 -36 468 c 0
 -39 474 -42 477 -42 483 c 0
EndSplineSet
EndChar

StartChar: glyph88
Encoding: 88 125 88
Width: 500
Flags: W
HStem: 445 66<-35.0766 204.771>
LayerCount: 3
Fore
SplineSet
-42 483 m 0
 -42 499 -34 511 -17 511 c 0
 -8 511 9 508 43 502 c 0
 86 494 121 493 152 493 c 2
 191 493 l 2
 242 493 283 511 314 537 c 0
 323 543 331 556 337 559 c 0
 343 562 339 556 326 543 c 0
 272 493 214 463 148 451 c 0
 120 445 66 445 34 445 c 0
 -14 445 -27 453 -36 468 c 0
 -39 474 -42 477 -42 483 c 0
EndSplineSet
EndChar

StartChar: glyph89
Encoding: 89 123 89
Width: 500
Flags: W
HStem: 445 66<-35.0766 204.771>
LayerCount: 3
Fore
SplineSet
-42 483 m 0
 -42 499 -34 511 -17 511 c 0
 -8 511 9 508 43 502 c 0
 86 494 121 493 152 493 c 2
 191 493 l 2
 242 493 283 511 314 537 c 0
 323 543 331 556 337 559 c 0
 343 562 339 556 326 543 c 0
 272 493 214 463 148 451 c 0
 120 445 66 445 34 445 c 0
 -14 445 -27 453 -36 468 c 0
 -39 474 -42 477 -42 483 c 0
EndSplineSet
EndChar

StartChar: glyph90
Encoding: 90 92 90
Width: 500
Flags: W
HStem: 445 66<-35.0766 204.771>
LayerCount: 3
Fore
SplineSet
-42 483 m 0
 -42 499 -34 511 -17 511 c 0
 -8 511 9 508 43 502 c 0
 86 494 121 493 152 493 c 2
 191 493 l 2
 242 493 283 511 314 537 c 0
 323 543 331 556 337 559 c 0
 343 562 339 556 326 543 c 0
 272 493 214 463 148 451 c 0
 120 445 66 445 34 445 c 0
 -14 445 -27 453 -36 468 c 0
 -39 474 -42 477 -42 483 c 0
EndSplineSet
EndChar

StartChar: glyph91
Encoding: 91 126 91
Width: 500
Flags: W
HStem: 445 66<-35.0766 204.771>
LayerCount: 3
Fore
SplineSet
-42 483 m 0
 -42 499 -34 511 -17 511 c 0
 -8 511 9 508 43 502 c 0
 86 494 121 493 152 493 c 2
 191 493 l 2
 242 493 283 511 314 537 c 0
 323 543 331 556 337 559 c 0
 343 562 339 556 326 543 c 0
 272 493 214 463 148 451 c 0
 120 445 66 445 34 445 c 0
 -14 445 -27 453 -36 468 c 0
 -39 474 -42 477 -42 483 c 0
EndSplineSet
EndChar

StartChar: glyph92
Encoding: 92 124 92
Width: 500
Flags: W
HStem: 445 66<-35.0766 204.771>
LayerCount: 3
Fore
SplineSet
-42 483 m 0
 -42 499 -34 511 -17 511 c 0
 -8 511 9 508 43 502 c 0
 86 494 121 493 152 493 c 2
 191 493 l 2
 242 493 283 511 314 537 c 0
 323 543 331 556 337 559 c 0
 343 562 339 556 326 543 c 0
 272 493 214 463 148 451 c 0
 120 445 66 445 34 445 c 0
 -14 445 -27 453 -36 468 c 0
 -39 474 -42 477 -42 483 c 0
EndSplineSet
EndChar

StartChar: glyph93
Encoding: 93 180 93
Width: 500
Flags: W
HStem: 445 66<-35.0766 204.771>
LayerCount: 3
Fore
SplineSet
-42 483 m 0
 -42 499 -34 511 -17 511 c 0
 -8 511 9 508 43 502 c 0
 86 494 121 493 152 493 c 2
 191 493 l 2
 242 493 283 511 314 537 c 0
 323 543 331 556 337 559 c 0
 343 562 339 556 326 543 c 0
 272 493 214 463 148 451 c 0
 120 445 66 445 34 445 c 0
 -14 445 -27 453 -36 468 c 0
 -39 474 -42 477 -42 483 c 0
EndSplineSet
EndChar

StartChar: glyph94
Encoding: 94 96 94
Width: 500
Flags: W
HStem: 445 66<-35.0766 204.771>
LayerCount: 3
Fore
SplineSet
-42 483 m 0
 -42 499 -34 511 -17 511 c 0
 -8 511 9 508 43 502 c 0
 86 494 121 493 152 493 c 2
 191 493 l 2
 242 493 283 511 314 537 c 0
 323 543 331 556 337 559 c 0
 343 562 339 556 326 543 c 0
 272 493 214 463 148 451 c 0
 120 445 66 445 34 445 c 0
 -14 445 -27 453 -36 468 c 0
 -39 474 -42 477 -42 483 c 0
EndSplineSet
EndChar

StartChar: glyph95
Encoding: 95 223 95
Width: 500
Flags: W
HStem: 445 66<-35.0766 204.771>
LayerCount: 3
Fore
SplineSet
-42 483 m 0
 -42 499 -34 511 -17 511 c 0
 -8 511 9 508 43 502 c 0
 86 494 121 493 152 493 c 2
 191 493 l 2
 242 493 283 511 314 537 c 0
 323 543 331 556 337 559 c 0
 343 562 339 556 326 543 c 0
 272 493 214 463 148 451 c 0
 120 445 66 445 34 445 c 0
 -14 445 -27 453 -36 468 c 0
 -39 474 -42 477 -42 483 c 0
EndSplineSet
EndChar
